<svg width="308" xmlns="http://www.w3.org/2000/svg" height="497" id="screenshot-c8db9ff8-9d6e-80b1-8006-2b5622259cd7" viewBox="-6 -6 308 497" xmlns:xlink="http://www.w3.org/1999/xlink" fill="none" version="1.1"><style>/* tifinagh */
@font-face {
  font-family: 'Akatab';
  font-style: normal;
  font-weight: 800;
  font-display: block;
  src: url(https://design.penpot.app/internal/gfonts/font/akatab/v7/VuJzdNrK3Z7gqJE3-KDtG6ljWRo.woff2) format('woff2');
  unicode-range: U+02C7, U+0301-0302, U+0304, U+0306-0307, U+0309, U+0323, U+0331, U+200C-200D, U+202E, U+25CC, U+2D30-2D7F;
}
/* latin-ext */
@font-face {
  font-family: 'Akatab';
  font-style: normal;
  font-weight: 800;
  font-display: block;
  src: url(https://design.penpot.app/internal/gfonts/font/akatab/v7/VuJzdNrK3Z7gqJE3-KDtNaljWRo.woff2) format('woff2');
  unicode-range: U+0100-02BA, U+02BD-02C5, U+02C7-02CC, U+02CE-02D7, U+02DD-02FF, U+0304, U+0308, U+0329, U+1D00-1DBF, U+1E00-1E9F, U+1EF2-1EFF, U+2020, U+20A0-20AB, U+20AD-20C0, U+2113, U+2C60-2C7F, U+A720-A7FF;
}
/* latin */
@font-face {
  font-family: 'Akatab';
  font-style: normal;
  font-weight: 800;
  font-display: block;
  src: url(https://design.penpot.app/internal/gfonts/font/akatab/v7/VuJzdNrK3Z7gqJE3-KDtO6lj.woff2) format('woff2');
  unicode-range: U+0000-00FF, U+0131, U+0152-0153, U+02BB-02BC, U+02C6, U+02DA, U+02DC, U+0304, U+0308, U+0329, U+2000-206F, U+20AC, U+2122, U+2191, U+2193, U+2212, U+2215, U+FEFF, U+FFFD;
}
</style><g id="shape-c8db9ff8-9d6e-80b1-8006-2b5622259cd7"><g class="frame-container-wrapper"><g class="frame-container-blur" filter="url(#filter-blur-render-1)"><defs><filter id="filter-blur-render-1" x="-0.010135135135135136" y="-0.006185567010309277" width="1.0202702702702702" height="1.0123711340206185" filterUnits="objectBoundingBox" color-interpolation-filters="sRGB"><feFlood flood-opacity="0" result="BackgroundImageFix"/><feBlend mode="normal" in="SourceGraphic" in2="BackgroundImageFix" result="shape"/><feGaussianBlur stdDeviation="1.5" result="filter_c8db9ff8-9d6e-80b1-8006-2b564c0ed485"/></filter></defs><g class="frame-container-shadows"><g fill="none"><g class="fills" id="fills-c8db9ff8-9d6e-80b1-8006-2b5622259cd7"><rect rx="0" ry="0" x="0" y="0" width="296" height="485.0000000000001" transform="matrix(1.000000, 0.000000, 0.000000, 1.000000, 0.000000, 0.000000)" class="frame-background"/></g><g class="frame-children"><g id="shape-c8db9ff8-9d6e-80b1-8006-2b5622259cd8" rx="0" ry="0"><g id="shape-c8db9ff8-9d6e-80b1-8006-2b5622259cdc"><g class="fills" id="fills-c8db9ff8-9d6e-80b1-8006-2b5622259cdc"><rect rx="0" ry="0" x="1.5230712890625" y="362.21536254882824" transform="matrix(1.000000, 0.000000, 0.000000, 1.000000, 0.000000, 0.000000)" width="294" height="121" style="fill: rgb(212, 254, 212); fill-opacity: 1;"/></g><g id="strokes-eeec3d64-d28a-80e4-8006-2b63df694599-c8db9ff8-9d6e-80b1-8006-2b5622259cdc" class="strokes"><g class="inner-stroke-shape" transform="matrix(1.000000, 0.000000, 0.000000, 1.000000, 0.000000, 0.000000)"><defs><clipPath id="inner-stroke-render-3-c8db9ff8-9d6e-80b1-8006-2b5622259cdc-0"><use href="#stroke-shape-render-3-c8db9ff8-9d6e-80b1-8006-2b5622259cdc-0"/></clipPath><rect rx="0" ry="0" x="1.5230712890625" y="362.21536254882824" width="294" height="121" id="stroke-shape-render-3-c8db9ff8-9d6e-80b1-8006-2b5622259cdc-0" style="fill: none; stroke-width: 2; stroke: rgb(0, 0, 0); stroke-opacity: 1; stroke-dasharray: 11, 11;"/></defs><use href="#stroke-shape-render-3-c8db9ff8-9d6e-80b1-8006-2b5622259cdc-0" clip-path="url('#inner-stroke-render-3-c8db9ff8-9d6e-80b1-8006-2b5622259cdc-0')"/></g></g></g><g id="shape-c8db9ff8-9d6e-80b1-8006-2b5622259cdd"><g class="frame-container-wrapper"><g class="frame-container-blur"><g class="frame-container-shadows"><g fill="none"><g class="fills" id="fills-c8db9ff8-9d6e-80b1-8006-2b5622259cdd"><rect rx="0" ry="0" x="96" y="379.0000000000001" width="106" height="29" transform="matrix(1.000000, 0.000000, 0.000000, 1.000000, 0.000000, 0.000000)" class="frame-background"/></g><g class="frame-children"><g id="shape-c8db9ff8-9d6e-80b1-8006-2b5622259cde"><g class="fills" id="fills-c8db9ff8-9d6e-80b1-8006-2b5622259cde"><rect rx="10" ry="10" x="96" y="379.0000000000001" transform="matrix(1.000000, 0.000000, 0.000000, 1.000000, 0.000000, 0.000000)" width="106" height="29" style="fill: rgb(42, 66, 82); fill-opacity: 1;"/></g><g id="strokes-eeec3d64-d28a-80e4-8006-2b63df6a4b13-c8db9ff8-9d6e-80b1-8006-2b5622259cde" class="strokes"><g class="stroke-shape"><rect rx="10" ry="10" x="96" y="379.0000000000001" transform="matrix(1.000000, 0.000000, 0.000000, 1.000000, 0.000000, 0.000000)" width="106" height="29" style="fill: none; stroke-width: 3; stroke: rgb(42, 66, 82); stroke-opacity: 1;"/></g></g></g><g id="shape-c8db9ff8-9d6e-80b1-8006-2b5622259cdf" rx="0" ry="0"><g id="shape-c8db9ff8-9d6e-80b1-8006-2b562225e659" class="bi bi-droplet-fill" width="16" height="16" rx="0" ry="0" style="fill: rgb(0, 0, 0);"><g id="shape-c8db9ff8-9d6e-80b1-8006-2b562225e65c" style="display: none;"><g class="fills" id="fills-c8db9ff8-9d6e-80b1-8006-2b562225e65c"><rect width="16" height="16" x="182" transform="matrix(1.000000, 0.000000, 0.000000, 1.000000, 0.000000, 0.000000)" style="fill: none;" ry="0" fill="none" rx="0" y="385.0000000000001"/></g></g><g id="shape-c8db9ff8-9d6e-80b1-8006-2b562225e65d"><g class="fills" id="fills-c8db9ff8-9d6e-80b1-8006-2b562225e65d"><path d="M190.000,401.000C193.314,401.000,196.000,398.314,196.000,395.000C196.000,393.345,194.878,392.096,193.568,390.638C192.254,389.176,190.750,387.503,190.000,385.000C190.000,385.000,184.000,390.686,184.000,395.000C184.000,398.314,186.686,401.000,190.000,401.000ZZM188.646,389.646L189.354,390.354C189.064,390.644,188.226,391.665,187.447,393.224L186.553,392.776C187.373,391.135,188.270,390.023,188.646,389.646ZZ" style="fill: rgb(255, 255, 255); fill-opacity: 1;"/></g></g></g><g id="shape-c8db9ff8-9d6e-80b1-8006-2b562225e65a" class="bi bi-droplet-fill" width="16" height="16" rx="0" ry="0" style="fill: rgb(0, 0, 0);"><g id="shape-c8db9ff8-9d6e-80b1-8006-2b562225e65e" style="display: none;"><g class="fills" id="fills-c8db9ff8-9d6e-80b1-8006-2b562225e65e"><rect width="16" height="16" x="169" transform="matrix(1.000000, 0.000000, 0.000000, 1.000000, 0.000000, 0.000000)" style="fill: none;" ry="0" fill="none" rx="0" y="385.0000000000001"/></g></g><g id="shape-c8db9ff8-9d6e-80b1-8006-2b562225e65f"><g class="fills" id="fills-c8db9ff8-9d6e-80b1-8006-2b562225e65f"><path d="M177.000,401.000C180.314,401.000,183.000,398.314,183.000,395.000C183.000,393.345,181.878,392.096,180.568,390.638C179.254,389.176,177.750,387.503,177.000,385.000C177.000,385.000,171.000,390.686,171.000,395.000C171.000,398.314,173.686,401.000,177.000,401.000ZZM175.646,389.646L176.354,390.354C176.064,390.644,175.226,391.665,174.447,393.224L173.553,392.776C174.373,391.135,175.270,390.023,175.646,389.646ZZ" style="fill: rgb(255, 255, 255); fill-opacity: 1;"/></g></g></g><g id="shape-c8db9ff8-9d6e-80b1-8006-2b562225e65b" class="bi bi-droplet-fill" width="16" height="16" rx="0" ry="0" style="fill: rgb(0, 0, 0);"><g id="shape-c8db9ff8-9d6e-80b1-8006-2b562225e660" style="display: none;"><g class="fills" id="fills-c8db9ff8-9d6e-80b1-8006-2b562225e660"><rect width="16" height="16" x="156" transform="matrix(1.000000, 0.000000, 0.000000, 1.000000, 0.000000, 0.000000)" style="fill: none;" ry="0" fill="none" rx="0" y="385.0000000000001"/></g></g><g id="shape-c8db9ff8-9d6e-80b1-8006-2b562225e661"><g class="fills" id="fills-c8db9ff8-9d6e-80b1-8006-2b562225e661"><path d="M164.000,401.000C167.314,401.000,170.000,398.314,170.000,395.000C170.000,393.345,168.878,392.096,167.568,390.638C166.254,389.176,164.750,387.503,164.000,385.000C164.000,385.000,158.000,390.686,158.000,395.000C158.000,398.314,160.686,401.000,164.000,401.000ZZM162.646,389.646L163.354,390.354C163.064,390.644,162.226,391.665,161.447,393.224L160.553,392.776C161.373,391.135,162.270,390.023,162.646,389.646ZZ" style="fill: rgb(255, 255, 255); fill-opacity: 1;"/></g></g></g></g><g id="shape-c8db9ff8-9d6e-80b1-8006-2b5622259ce0"><g transform="matrix(1.000000, 0.000000, 0.000000, 1.000000, 0.000000, 0.000000)" class="text-container" x="93" y="379.0000000000001" width="67" height="29" rx="0" ry="0"><defs><pattern patternUnits="userSpaceOnUse" x="93" y="379.0000000000001" width="29.44615364074707" height="17.72307586669922" id="fill-0-render-16-0"><g><rect width="29.44615364074707" height="17.72307586669922" style="fill: rgb(255, 255, 255); fill-opacity: 1;"/></g></pattern></defs><g class="fills" id="fills-c8db9ff8-9d6e-80b1-8006-2b5622259ce0"><text x="111.7730770111084" y="401.9384608268739" dominant-baseline="ideographic" textLength="29.44615364074707" lengthAdjust="spacingAndGlyphs" style="text-transform: none; font-family: Akatab; letter-spacing: normal; font-style: normal; font-weight: 800; white-space: pre; font-size: 13px; text-decoration: none solid rgb(255, 255, 255); direction: ltr; fill: rgb(255, 255, 255); fill-opacity: 1;">Cacti</text></g></g></g></g></g></g></g></g></g></g><g id="shape-c8db9ff8-9d6e-80b1-8006-2b5622259cd9" rx="0" ry="0"><g id="shape-c8db9ff8-9d6e-80b1-8006-2b562225e662"><g class="fills" id="fills-c8db9ff8-9d6e-80b1-8006-2b562225e662"><path d="M296.000,123.000L296.000,364.000L147.000,364.000L147.000,123.000L2.000,123.000L2.000,2.000L296.000,2.000L296.000,121.000L296.000,123.000Z" style="fill: rgb(254, 233, 212); fill-opacity: 1;"/></g><g id="strokes-eeec3d64-d28a-80e4-8006-2b63df6f1694-c8db9ff8-9d6e-80b1-8006-2b562225e662" class="strokes"><g class="inner-stroke-shape"><defs><clipPath id="inner-stroke-render-18-c8db9ff8-9d6e-80b1-8006-2b562225e662-0"><use href="#stroke-shape-render-18-c8db9ff8-9d6e-80b1-8006-2b562225e662-0"/></clipPath><path d="M296.000,123.000L296.000,364.000L147.000,364.000L147.000,123.000L2.000,123.000L2.000,2.000L296.000,2.000L296.000,121.000L296.000,123.000Z" id="stroke-shape-render-18-c8db9ff8-9d6e-80b1-8006-2b562225e662-0" style="fill: none; stroke-width: 2; stroke: rgb(0, 0, 0); stroke-opacity: 1; stroke-dasharray: 11, 11;"/></defs><use href="#stroke-shape-render-18-c8db9ff8-9d6e-80b1-8006-2b562225e662-0" clip-path="url('#inner-stroke-render-18-c8db9ff8-9d6e-80b1-8006-2b562225e662-0')"/></g></g></g><g id="shape-c8db9ff8-9d6e-80b1-8006-2b562225e663"><g class="frame-container-wrapper"><g class="frame-container-blur"><g class="frame-container-shadows"><g fill="none"><g class="fills" id="fills-c8db9ff8-9d6e-80b1-8006-2b562225e663"><rect rx="0" ry="0" x="96" y="23" width="106" height="29.000000000000114" transform="matrix(1.000000, 0.000000, 0.000000, 1.000000, 0.000000, 0.000000)" class="frame-background"/></g><g class="frame-children"><g id="shape-c8db9ff8-9d6e-80b1-8006-2b562225e666"><g class="fills" id="fills-c8db9ff8-9d6e-80b1-8006-2b562225e666"><rect rx="10" ry="10" x="96" y="23" transform="matrix(1.000000, 0.000000, 0.000000, 1.000000, 0.000000, 0.000000)" width="106" height="29.000000000000114" style="fill: rgb(42, 66, 82); fill-opacity: 1;"/></g><g id="strokes-eeec3d64-d28a-80e4-8006-2b63df6fb61b-c8db9ff8-9d6e-80b1-8006-2b562225e666" class="strokes"><g class="stroke-shape"><rect rx="10" ry="10" x="96" y="23" transform="matrix(1.000000, 0.000000, 0.000000, 1.000000, 0.000000, 0.000000)" width="106" height="29.000000000000114" style="fill: none; stroke-width: 3; stroke: rgb(42, 66, 82); stroke-opacity: 1;"/></g></g></g><g id="shape-c8db9ff8-9d6e-80b1-8006-2b562225e667" rx="0" ry="0"><g id="shape-c8db9ff8-9d6e-80b1-8006-2b562225e669" class="bi bi-droplet-fill" width="16" height="16" rx="0" ry="0" style="fill: rgb(0, 0, 0);"><g id="shape-c8db9ff8-9d6e-80b1-8006-2b562225e66b" style="display: none;"><g class="fills" id="fills-c8db9ff8-9d6e-80b1-8006-2b562225e66b"><rect width="16" height="16" x="182" transform="matrix(1.000000, 0.000000, 0.000000, 1.000000, 0.000000, 0.000000)" style="fill: none;" ry="0" fill="none" rx="0" y="28.999999999999886"/></g></g><g id="shape-c8db9ff8-9d6e-80b1-8006-2b562225e66c"><g class="fills" id="fills-c8db9ff8-9d6e-80b1-8006-2b562225e66c"><path d="M190.000,45.000C193.314,45.000,196.000,42.314,196.000,39.000C196.000,37.345,194.878,36.096,193.568,34.638C192.254,33.176,190.750,31.503,190.000,29.000C190.000,29.000,184.000,34.686,184.000,39.000C184.000,42.314,186.686,45.000,190.000,45.000ZZM188.646,33.646L189.354,34.354C189.064,34.644,188.226,35.665,187.447,37.224L186.553,36.776C187.373,35.135,188.270,34.023,188.646,33.646ZZ" style="fill: rgb(255, 255, 255); fill-opacity: 1;"/></g></g></g><g id="shape-c8db9ff8-9d6e-80b1-8006-2b562225e66a" class="bi bi-droplet-fill" width="16" height="16" rx="0" ry="0" style="fill: rgb(0, 0, 0);"><g id="shape-c8db9ff8-9d6e-80b1-8006-2b562225e66d" style="display: none;"><g class="fills" id="fills-c8db9ff8-9d6e-80b1-8006-2b562225e66d"><rect width="16" height="16" x="169" transform="matrix(1.000000, 0.000000, 0.000000, 1.000000, 0.000000, 0.000000)" style="fill: none;" ry="0" fill="none" rx="0" y="28.999999999999886"/></g></g><g id="shape-c8db9ff8-9d6e-80b1-8006-2b562225e66e"><g class="fills" id="fills-c8db9ff8-9d6e-80b1-8006-2b562225e66e"><path d="M177.000,45.000C180.314,45.000,183.000,42.314,183.000,39.000C183.000,37.345,181.878,36.096,180.568,34.638C179.254,33.176,177.750,31.503,177.000,29.000C177.000,29.000,171.000,34.686,171.000,39.000C171.000,42.314,173.686,45.000,177.000,45.000ZZM175.646,33.646L176.354,34.354C176.064,34.644,175.226,35.665,174.447,37.224L173.553,36.776C174.373,35.135,175.270,34.023,175.646,33.646ZZ" style="fill: rgb(255, 255, 255); fill-opacity: 1;"/></g></g></g></g><g id="shape-c8db9ff8-9d6e-80b1-8006-2b562225e668"><g transform="matrix(1.000000, 0.000000, 0.000000, 1.000000, 0.000000, 0.000000)" class="text-container" x="93" y="22.999999999999943" width="67" height="28.999999999999943" rx="0" ry="0"><defs><pattern patternUnits="userSpaceOnUse" x="93" y="22.999999999999943" width="52.44231033325195" height="17.72307586669922" id="fill-0-render-28-0"><g><rect width="52.44231033325195" height="17.72307586669922" style="fill: rgb(255, 255, 255); fill-opacity: 1;"/></g></pattern></defs><g class="fills" id="fills-c8db9ff8-9d6e-80b1-8006-2b562225e668"><text x="100.26923084259033" y="45.93846082687372" dominant-baseline="ideographic" textLength="52.44231033325195" lengthAdjust="spacingAndGlyphs" style="text-transform: none; font-family: Akatab; letter-spacing: normal; font-style: normal; font-weight: 800; white-space: pre; font-size: 13px; text-decoration: none solid rgb(255, 255, 255); direction: ltr; fill: rgb(255, 255, 255); fill-opacity: 1;">Ryegrass</text></g></g></g></g></g></g></g></g></g></g><g id="shape-c8db9ff8-9d6e-80b1-8006-2b5622259cda" rx="0" ry="0"><g id="shape-c8db9ff8-9d6e-80b1-8006-2b562225e66f"><g class="fills" id="fills-c8db9ff8-9d6e-80b1-8006-2b562225e66f"><path d="M2.000,121.000L148.000,121.000L148.000,363.500L2.000,363.500L2.000,121.000Z" style="fill: rgb(217, 255, 246); fill-opacity: 1;"/></g><g id="strokes-eeec3d64-d28a-80e4-8006-2b63df71f4fa-c8db9ff8-9d6e-80b1-8006-2b562225e66f" class="strokes"><g class="inner-stroke-shape"><defs><clipPath id="inner-stroke-render-30-c8db9ff8-9d6e-80b1-8006-2b562225e66f-0"><use href="#stroke-shape-render-30-c8db9ff8-9d6e-80b1-8006-2b562225e66f-0"/></clipPath><path d="M2.000,121.000L148.000,121.000L148.000,363.500L2.000,363.500L2.000,121.000Z" id="stroke-shape-render-30-c8db9ff8-9d6e-80b1-8006-2b562225e66f-0" style="fill: none; stroke-width: 2; stroke: rgb(0, 0, 0); stroke-opacity: 1; stroke-dasharray: 11, 11;"/></defs><use href="#stroke-shape-render-30-c8db9ff8-9d6e-80b1-8006-2b562225e66f-0" clip-path="url('#inner-stroke-render-30-c8db9ff8-9d6e-80b1-8006-2b562225e66f-0')"/></g></g></g><g id="shape-c8db9ff8-9d6e-80b1-8006-2b562225e670"><g class="frame-container-wrapper"><g class="frame-container-blur"><g class="frame-container-shadows"><g fill="none"><g class="fills" id="fills-c8db9ff8-9d6e-80b1-8006-2b562225e670"><rect rx="0" ry="0" x="18.000000000004775" y="147.05371900826447" width="106" height="29.05991735537191" transform="matrix(1.000000, 0.000000, 0.000000, 1.000000, 0.000000, 0.000000)" class="frame-background"/></g><g class="frame-children"><g id="shape-c8db9ff8-9d6e-80b1-8006-2b562225e671"><g class="fills" id="fills-c8db9ff8-9d6e-80b1-8006-2b562225e671"><rect rx="10" ry="10" x="18.000000000004775" y="147.05371900826447" transform="matrix(1.000000, 0.000000, 0.000000, 1.000000, 0.000000, 0.000000)" width="106" height="29.05991735537191" style="fill: rgb(42, 66, 82); fill-opacity: 1;"/></g><g id="strokes-eeec3d64-d28a-80e4-8006-2b63df7253b0-c8db9ff8-9d6e-80b1-8006-2b562225e671" class="strokes"><g class="stroke-shape"><rect rx="10" ry="10" x="18.000000000004775" y="147.05371900826447" transform="matrix(1.000000, 0.000000, 0.000000, 1.000000, 0.000000, 0.000000)" width="106" height="29.05991735537191" style="fill: none; stroke-width: 3; stroke: rgb(42, 66, 82); stroke-opacity: 1;"/></g></g></g><g id="shape-c8db9ff8-9d6e-80b1-8006-2b562225e672" rx="0" ry="0"><g id="shape-c8db9ff8-9d6e-80b1-8006-2b562225e674" class="bi bi-droplet-fill" width="16" height="16" rx="0" ry="0" style="fill: rgb(0, 0, 0);"><g id="shape-c8db9ff8-9d6e-80b1-8006-2b562225e677" style="display: none;"><g class="fills" id="fills-c8db9ff8-9d6e-80b1-8006-2b562225e677"><rect width="16" height="16" x="104.00000000000477" transform="matrix(1.000000, 0.000000, 0.000000, 1.000000, 0.000000, 0.000000)" style="fill: none;" ry="0" fill="none" rx="0" y="153.05371900826447"/></g></g><g id="shape-c8db9ff8-9d6e-80b1-8006-2b562225e678"><g class="fills" id="fills-c8db9ff8-9d6e-80b1-8006-2b562225e678"><path d="M112.000,169.054C115.314,169.054,118.000,166.367,118.000,163.054C118.000,161.399,116.878,160.150,115.568,158.692C114.254,157.230,112.750,155.557,112.000,153.054C112.000,153.054,106.000,158.740,106.000,163.054C106.000,166.367,108.686,169.054,112.000,169.054ZZM110.646,157.700L111.354,158.408C111.064,158.698,110.226,159.719,109.447,161.278L108.553,160.830C109.373,159.189,110.270,158.077,110.646,157.700ZZ" style="fill: rgb(255, 255, 255); fill-opacity: 1;"/></g></g></g><g id="shape-c8db9ff8-9d6e-80b1-8006-2b562225e675" class="bi bi-droplet-fill" width="16" height="16" rx="0" ry="0" style="fill: rgb(0, 0, 0);"><g id="shape-c8db9ff8-9d6e-80b1-8006-2b562225e679" style="display: none;"><g class="fills" id="fills-c8db9ff8-9d6e-80b1-8006-2b562225e679"><rect width="16" height="16" x="91.00000000000477" transform="matrix(1.000000, 0.000000, 0.000000, 1.000000, 0.000000, 0.000000)" style="fill: none;" ry="0" fill="none" rx="0" y="153.05371900826447"/></g></g><g id="shape-c8db9ff8-9d6e-80b1-8006-2b562225e67a"><g class="fills" id="fills-c8db9ff8-9d6e-80b1-8006-2b562225e67a"><path d="M99.000,169.054C102.314,169.054,105.000,166.367,105.000,163.054C105.000,161.399,103.878,160.150,102.568,158.692C101.254,157.230,99.750,155.557,99.000,153.054C99.000,153.054,93.000,158.740,93.000,163.054C93.000,166.367,95.686,169.054,99.000,169.054ZZM97.646,157.700L98.354,158.408C98.064,158.698,97.226,159.719,96.447,161.278L95.553,160.830C96.373,159.189,97.270,158.077,97.646,157.700ZZ" style="fill: rgb(255, 255, 255); fill-opacity: 1;"/></g></g></g><g id="shape-c8db9ff8-9d6e-80b1-8006-2b562225e676" class="bi bi-droplet-fill" width="16" height="16" rx="0" ry="0" style="fill: rgb(0, 0, 0);"><g id="shape-c8db9ff8-9d6e-80b1-8006-2b5622263220" style="display: none;"><g class="fills" id="fills-c8db9ff8-9d6e-80b1-8006-2b5622263220"><rect width="16" height="16" x="78.00000000000477" transform="matrix(1.000000, 0.000000, 0.000000, 1.000000, 0.000000, 0.000000)" style="fill: none;" ry="0" fill="none" rx="0" y="153.05371900826447"/></g></g><g id="shape-c8db9ff8-9d6e-80b1-8006-2b5622263221"><g class="fills" id="fills-c8db9ff8-9d6e-80b1-8006-2b5622263221"><path d="M86.000,169.054C89.314,169.054,92.000,166.367,92.000,163.054C92.000,161.399,90.878,160.150,89.568,158.692C88.254,157.230,86.750,155.557,86.000,153.054C86.000,153.054,80.000,158.740,80.000,163.054C80.000,166.367,82.686,169.054,86.000,169.054ZZM84.646,157.700L85.354,158.408C85.064,158.698,84.226,159.719,83.447,161.278L82.553,160.830C83.373,159.189,84.270,158.077,84.646,157.700ZZ" style="fill: rgb(255, 255, 255); fill-opacity: 1;"/></g></g></g></g><g id="shape-c8db9ff8-9d6e-80b1-8006-2b562225e673"><g transform="matrix(1.000000, 0.000000, 0.000000, 1.000000, 0.000000, 0.000000)" class="text-container" x="15.000000000004775" y="147.05371900826447" width="67" height="29" rx="0" ry="0"><defs><pattern patternUnits="userSpaceOnUse" x="15.000000000004775" y="147.05371900826447" width="33.94615173339844" height="17.72307586669922" id="fill-0-render-43-0"><g><rect width="33.94615173339844" height="17.72307586669922" style="fill: rgb(255, 255, 255); fill-opacity: 1;"/></g></pattern></defs><g class="fills" id="fills-c8db9ff8-9d6e-80b1-8006-2b562225e673"><text x="31.523077011113173" y="169.99217983513824" dominant-baseline="ideographic" textLength="33.94615173339844" lengthAdjust="spacingAndGlyphs" style="text-transform: none; font-family: Akatab; letter-spacing: normal; font-style: normal; font-weight: 800; white-space: pre; font-size: 13px; text-decoration: none solid rgb(255, 255, 255); direction: ltr; fill: rgb(255, 255, 255); fill-opacity: 1;">Roses</text></g></g></g></g></g></g></g></g></g></g><g id="shape-c8db9ff8-9d6e-80b1-8006-2b5622259cdb"><g class="fills" id="fills-c8db9ff8-9d6e-80b1-8006-2b5622259cdb"><rect rx="0" ry="0" x="0" y="2" transform="matrix(1.000000, 0.000000, 0.000000, 1.000000, 0.000000, 0.000000)" width="296" height="482.9999999999999"/></g><g id="strokes-eeec3d64-d28a-80e4-8006-2b63df74fd13-c8db9ff8-9d6e-80b1-8006-2b5622259cdb" class="strokes"><g class="inner-stroke-shape" transform="matrix(1.000000, 0.000000, 0.000000, 1.000000, 0.000000, 0.000000)"><defs><clipPath id="inner-stroke-render-44-c8db9ff8-9d6e-80b1-8006-2b5622259cdb-0"><use href="#stroke-shape-render-44-c8db9ff8-9d6e-80b1-8006-2b5622259cdb-0"/></clipPath><rect rx="0" ry="0" x="0" y="2" width="296" height="482.9999999999999" id="stroke-shape-render-44-c8db9ff8-9d6e-80b1-8006-2b5622259cdb-0" style="fill: none; stroke-width: 6; stroke: rgb(35, 103, 25); stroke-opacity: 1;"/></defs><use href="#stroke-shape-render-44-c8db9ff8-9d6e-80b1-8006-2b5622259cdb-0" clip-path="url('#inner-stroke-render-44-c8db9ff8-9d6e-80b1-8006-2b5622259cdb-0')"/></g></g></g></g></g></g></g></g></g></svg>