<svg width="386" xmlns="http://www.w3.org/2000/svg" height="706" id="screenshot-e336b74c-8b20-80fa-8006-1bed3e300bdd" viewBox="0 0 386 706" xmlns:xlink="http://www.w3.org/1999/xlink" fill="none" version="1.1"><g id="shape-e336b74c-8b20-80fa-8006-1bed3e300bdd"><defs><clipPath id="frame-clip-e336b74c-8b20-80fa-8006-1bed3e300bdd-render-1" class="frame-clip frame-clip-def"><rect rx="0" ry="0" x="0" y="0" width="386" height="706" transform="matrix(1.000000, 0.000000, 0.000000, 1.000000, 0.000000, 0.000000)"/></clipPath></defs><g class="frame-container-wrapper"><g class="frame-container-blur"><g class="frame-container-shadows"><g clip-path="url(#frame-clip-e336b74c-8b20-80fa-8006-1bed3e300bdd-render-1)" fill="none"><g class="fills" id="fills-e336b74c-8b20-80fa-8006-1bed3e300bdd"><rect width="386" height="706" class="frame-background" x="0" transform="matrix(1.000000, 0.000000, 0.000000, 1.000000, 0.000000, 0.000000)" style="fill: rgb(255, 255, 255); fill-opacity: 1;" ry="0" rx="0" y="0"/></g><g class="frame-children"><g id="shape-e336b74c-8b20-80fa-8006-1c029c9918cd" rx="0" ry="0"><g id="shape-e336b74c-8b20-80fa-8006-1c029c9918ce" rx="0" ry="0"><g id="shape-e336b74c-8b20-80fa-8006-1c029c9918d1" rx="0" ry="0"><g id="shape-e336b74c-8b20-80fa-8006-1c029c9918d4"><g class="fills" id="fills-e336b74c-8b20-80fa-8006-1c029c9918d4"><path d="M192.552,356.397L192.673,446.398"/></g><g id="strokes-86836905-d80f-8075-8006-1c10ff3c0736-e336b74c-8b20-80fa-8006-1c029c9918d4" class="strokes"><g class="stroke-shape"><path d="M192.552,356.397L192.673,446.398" style="fill: none; stroke-width: 3; stroke: rgb(0, 0, 0); stroke-opacity: 1; stroke-dasharray: 13, 13;"/></g></g></g><g id="shape-e336b74c-8b20-80fa-8006-1c029c9918d5"><g class="fills" id="fills-e336b74c-8b20-80fa-8006-1c029c9918d5"><ellipse cx="192.67288888888925" cy="445.2305340975059" rx="3.27599999999984" ry="3.2694659024941757" transform="matrix(1.000000, 0.000000, 0.000000, 1.000000, 0.000000, 0.000000)" style="fill: rgb(0, 0, 0); fill-opacity: 1;"/></g></g></g></g><g id="shape-e336b74c-8b20-80fa-8006-1c029c9918cf" rx="0" ry="0"><g id="shape-e336b74c-8b20-80fa-8006-1c029c9918d6"><g class="fills" id="fills-e336b74c-8b20-80fa-8006-1c029c9918d6"><path d="M251.500,280.117L193.000,352.979L134.500,280.117C134.500,280.117,154.000,260.500,193.000,260.500C232.000,260.500,251.500,280.117,251.500,280.117Z" style="fill: rgb(172, 195, 230); fill-opacity: 0.5;"/></g><g id="strokes-86836905-d80f-8075-8006-1c10ff3d54b4-e336b74c-8b20-80fa-8006-1c029c9918d6" class="strokes"><g class="stroke-shape"><path d="M251.500,280.117L193.000,352.979L134.500,280.117C134.500,280.117,154.000,260.500,193.000,260.500C232.000,260.500,251.500,280.117,251.500,280.117Z" style="fill: none; stroke-width: 0; stroke: rgb(172, 195, 230); stroke-opacity: 0.5;"/></g></g></g><g id="shape-e336b74c-8b20-80fa-8006-1c029c9918d7"><g class="fills" id="fills-e336b74c-8b20-80fa-8006-1c029c9918d7"><ellipse cx="193.23399999999947" cy="351.8115119910898" rx="17.550000000000182" ry="17.51499590621927" transform="matrix(1.000000, 0.000000, 0.000000, 1.000000, 0.000000, 0.000000)" style="fill: rgb(66, 133, 244); fill-opacity: 0.8;"/></g><g id="strokes-86836905-d80f-8075-8006-1c10ff3d9af8-e336b74c-8b20-80fa-8006-1c029c9918d7" class="strokes"><g class="inner-stroke-shape" transform="matrix(1.000000, 0.000000, 0.000000, 1.000000, 0.000000, 0.000000)"><defs><clipPath id="inner-stroke-render-9-e336b74c-8b20-80fa-8006-1c029c9918d7-0"><use href="#stroke-shape-render-9-e336b74c-8b20-80fa-8006-1c029c9918d7-0"/></clipPath><ellipse cx="193.23399999999947" cy="351.8115119910898" rx="17.550000000000182" ry="17.51499590621927" id="stroke-shape-render-9-e336b74c-8b20-80fa-8006-1c029c9918d7-0" style="fill: none; stroke-width: 8; stroke: rgb(255, 255, 255); stroke-opacity: 0.8;"/></defs><use href="#stroke-shape-render-9-e336b74c-8b20-80fa-8006-1c029c9918d7-0" clip-path="url('#inner-stroke-render-9-e336b74c-8b20-80fa-8006-1c029c9918d7-0')"/></g></g></g></g></g></g></g></g></g></g></g></svg>