<svg width="386" xmlns="http://www.w3.org/2000/svg" height="706" id="screenshot-e336b74c-8b20-80fa-8006-1bed3e300bdd" viewBox="0 0 386 706" xmlns:xlink="http://www.w3.org/1999/xlink" fill="none" version="1.1"><g id="shape-e336b74c-8b20-80fa-8006-1bed3e300bdd"><defs><clipPath id="frame-clip-e336b74c-8b20-80fa-8006-1bed3e300bdd-render-1" class="frame-clip frame-clip-def"><rect rx="0" ry="0" x="0" y="0" width="386" height="706" transform="matrix(1.000000, 0.000000, 0.000000, 1.000000, 0.000000, 0.000000)"/></clipPath></defs><g class="frame-container-wrapper"><g class="frame-container-blur"><g class="frame-container-shadows"><g clip-path="url(#frame-clip-e336b74c-8b20-80fa-8006-1bed3e300bdd-render-1)" fill="none"><g class="fills" id="fills-e336b74c-8b20-80fa-8006-1bed3e300bdd"><rect width="386" height="706" class="frame-background" x="0" transform="matrix(1.000000, 0.000000, 0.000000, 1.000000, 0.000000, 0.000000)" style="fill: rgb(255, 255, 255); fill-opacity: 1;" ry="0" rx="0" y="0"/></g><g class="frame-children"><g id="shape-e336b74c-8b20-80fa-8006-1bf78b7a5436" rx="0" ry="0"><g id="shape-e336b74c-8b20-80fa-8006-1bf78b7a5437" rx="0" ry="0"><g id="shape-e336b74c-8b20-80fa-8006-1bf78b7a5439" rx="0" ry="0"><g id="shape-e336b74c-8b20-80fa-8006-1bf78b7a543b"><g class="fills" id="fills-e336b74c-8b20-80fa-8006-1bf78b7a543b"><path d="M6.941,513.000C5.318,513.000,4.000,511.683,4.000,510.061C4.000,508.438,5.318,507.121,6.941,507.121C8.564,507.121,9.881,508.438,9.881,510.061C9.881,511.683,8.564,513.000,6.941,513.000Z" style="fill: rgb(0, 0, 0); fill-opacity: 1;"/></g><g id="strokes-219b12d6-f20b-804a-8006-1c12a74e7101-e336b74c-8b20-80fa-8006-1bf78b7a543b" class="strokes"><g class="stroke-shape"><path d="M6.941,513.000C5.318,513.000,4.000,511.683,4.000,510.061C4.000,508.438,5.318,507.121,6.941,507.121C8.564,507.121,9.881,508.438,9.881,510.061C9.881,511.683,8.564,513.000,6.941,513.000Z" style="fill: none; stroke-width: 0; stroke: rgb(255, 255, 255); stroke-opacity: 1;"/></g></g></g><g id="shape-e336b74c-8b20-80fa-8006-1bf78b7a543c"><g class="fills" id="fills-e336b74c-8b20-80fa-8006-1bf78b7a543c"><path d="M193.458,510.061L6.941,510.061"/></g><g id="strokes-219b12d6-f20b-804a-8006-1c12a74ef613-e336b74c-8b20-80fa-8006-1bf78b7a543c" class="strokes"><g class="stroke-shape"><path d="M193.458,510.061L6.941,510.061" style="fill: none; stroke-width: 2.5; stroke: rgb(0, 0, 0); stroke-opacity: 1; stroke-dasharray: 12.5, 12.5;"/></g></g></g></g><g id="shape-e336b74c-8b20-80fa-8006-1bf78b7a543a" rx="0" ry="0"><g id="shape-e336b74c-8b20-80fa-8006-1bf78b7a543d"><g class="fills" id="fills-e336b74c-8b20-80fa-8006-1bf78b7a543d"><path d="M193.458,368.472L193.560,510.983"/></g><g id="strokes-219b12d6-f20b-804a-8006-1c12a74fa05c-e336b74c-8b20-80fa-8006-1bf78b7a543d" class="strokes"><g class="stroke-shape"><path d="M193.458,368.472L193.560,510.983" style="fill: none; stroke-width: 2.5; stroke: rgb(0, 0, 0); stroke-opacity: 1; stroke-dasharray: 12.5, 12.5;"/></g></g></g><g id="shape-e336b74c-8b20-80fa-8006-1bf78b7a543e"><g class="fills" id="fills-e336b74c-8b20-80fa-8006-1bf78b7a543e"><ellipse cx="193.55958006885953" cy="510.0015368550037" rx="2.7499437406638663" ry="2.748791731393311" transform="matrix(1.000000, 0.000000, 0.000000, 1.000000, 0.000000, 0.000000)" style="fill: rgb(0, 0, 0); fill-opacity: 1;"/></g></g></g></g><g id="shape-e336b74c-8b20-80fa-8006-1bf78b7a5438" rx="0" ry="0"><g id="shape-e336b74c-8b20-80fa-8006-1bf78b7a543f"><g class="fills" id="fills-e336b74c-8b20-80fa-8006-1bf78b7a543f"><path d="M250.000,282.160L193.023,353.327L136.046,282.160C136.046,282.160,155.038,263.000,193.023,263.000C231.008,263.000,250.000,282.160,250.000,282.160Z" style="fill: rgb(172, 195, 230); fill-opacity: 0.5;"/></g><g id="strokes-219b12d6-f20b-804a-8006-1c12a7505121-e336b74c-8b20-80fa-8006-1bf78b7a543f" class="strokes"><g class="stroke-shape"><path d="M250.000,282.160L193.023,353.327L136.046,282.160C136.046,282.160,155.038,263.000,193.023,263.000C231.008,263.000,250.000,282.160,250.000,282.160Z" style="fill: none; stroke-width: 0; stroke: rgb(172, 195, 230); stroke-opacity: 0.5;"/></g></g></g><g id="shape-e336b74c-8b20-80fa-8006-1bf78b7a5440"><g class="fills" id="fills-e336b74c-8b20-80fa-8006-1bf78b7a5440"><ellipse cx="193.25094708713868" cy="352.18664968707014" rx="17.093088226765303" ry="17.10741362283963" transform="matrix(1.000000, 0.000000, 0.000000, 1.000000, 0.000000, 0.000000)" style="fill: rgb(66, 133, 244); fill-opacity: 0.8;"/></g><g id="strokes-219b12d6-f20b-804a-8006-1c12a750d277-e336b74c-8b20-80fa-8006-1bf78b7a5440" class="strokes"><g class="inner-stroke-shape" transform="matrix(1.000000, 0.000000, 0.000000, 1.000000, 0.000000, 0.000000)"><defs><clipPath id="inner-stroke-render-12-e336b74c-8b20-80fa-8006-1bf78b7a5440-0"><use href="#stroke-shape-render-12-e336b74c-8b20-80fa-8006-1bf78b7a5440-0"/></clipPath><ellipse cx="193.25094708713868" cy="352.18664968707014" rx="17.093088226765303" ry="17.10741362283963" id="stroke-shape-render-12-e336b74c-8b20-80fa-8006-1bf78b7a5440-0" style="fill: none; stroke-width: 8; stroke: rgb(255, 255, 255); stroke-opacity: 0.8;"/></defs><use href="#stroke-shape-render-12-e336b74c-8b20-80fa-8006-1bf78b7a5440-0" clip-path="url('#inner-stroke-render-12-e336b74c-8b20-80fa-8006-1bf78b7a5440-0')"/></g></g></g></g></g></g></g></g></g></g></g></svg>