<svg width="386" xmlns="http://www.w3.org/2000/svg" height="706" id="screenshot-e336b74c-8b20-80fa-8006-1bed3e300bdd" viewBox="0 0 386 706" xmlns:xlink="http://www.w3.org/1999/xlink" fill="none" version="1.1"><g id="shape-e336b74c-8b20-80fa-8006-1bed3e300bdd"><defs><clipPath id="frame-clip-e336b74c-8b20-80fa-8006-1bed3e300bdd-render-1" class="frame-clip frame-clip-def"><rect rx="0" ry="0" x="0" y="0" width="386" height="706" transform="matrix(1.000000, 0.000000, 0.000000, 1.000000, 0.000000, 0.000000)"/></clipPath></defs><g class="frame-container-wrapper"><g class="frame-container-blur"><g class="frame-container-shadows"><g clip-path="url(#frame-clip-e336b74c-8b20-80fa-8006-1bed3e300bdd-render-1)" fill="none"><g class="fills" id="fills-e336b74c-8b20-80fa-8006-1bed3e300bdd"><rect width="386" height="706" class="frame-background" x="0" transform="matrix(1.000000, 0.000000, 0.000000, 1.000000, 0.000000, 0.000000)" style="fill: rgb(255, 255, 255); fill-opacity: 1;" ry="0" rx="0" y="0"/></g><g class="frame-children"><g id="shape-e336b74c-8b20-80fa-8006-1c08023c8a05" rx="0" ry="0"><g id="shape-e336b74c-8b20-80fa-8006-1c08023c8a06" rx="0" ry="0"><g id="shape-e336b74c-8b20-80fa-8006-1c08023c8a08" rx="0" ry="0"><g id="shape-e336b74c-8b20-80fa-8006-1c08023c8a0b"><g class="fills" id="fills-e336b74c-8b20-80fa-8006-1c08023c8a0b"><path d="M195.500,618.117C195.500,619.156,194.657,620.000,193.619,620.000C192.581,620.000,191.739,619.156,191.739,618.117C191.739,617.078,192.581,616.235,193.619,616.235C194.657,616.235,195.500,617.078,195.500,618.117Z" style="fill: rgb(0, 0, 0); fill-opacity: 1;"/></g><g id="strokes-ae796f3d-1f4e-807e-8006-1c13d4943957-e336b74c-8b20-80fa-8006-1c08023c8a0b" class="strokes"><g class="stroke-shape"><path d="M195.500,618.117C195.500,619.156,194.657,620.000,193.619,620.000C192.581,620.000,191.739,619.156,191.739,618.117C191.739,617.078,192.581,616.235,193.619,616.235C194.657,616.235,195.500,617.078,195.500,618.117Z" style="fill: none; stroke-width: 0; stroke: rgb(255, 255, 255); stroke-opacity: 1;"/></g></g></g><g id="shape-e336b74c-8b20-80fa-8006-1c08023c8a0c"><g class="fills" id="fills-e336b74c-8b20-80fa-8006-1c08023c8a0c"><path d="M193.619,368.154L193.619,618.117M193.619,368.154"/></g><g id="strokes-ae796f3d-1f4e-807e-8006-1c13d494e50a-e336b74c-8b20-80fa-8006-1c08023c8a0c" class="strokes"><g class="stroke-shape"><path d="M193.619,368.154L193.619,618.117M193.619,368.154" style="fill: none; stroke-width: 2; stroke: rgb(0, 0, 0); stroke-opacity: 1; stroke-dasharray: 12, 12;"/></g></g></g></g><g id="shape-e336b74c-8b20-80fa-8006-1c08023c8a09" rx="0" ry="0"><g id="shape-e336b74c-8b20-80fa-8006-1c08023c8a0d"><g class="fills" id="fills-e336b74c-8b20-80fa-8006-1c08023c8a0d"><path d="M19.500,498.728C19.500,497.689,20.343,496.845,21.381,496.845C22.419,496.845,23.261,497.689,23.261,498.728C23.261,499.767,22.419,500.611,21.381,500.611C20.343,500.611,19.500,499.767,19.500,498.728Z" style="fill: rgb(0, 0, 0); fill-opacity: 1;"/></g><g id="strokes-ae796f3d-1f4e-807e-8006-1c13d495a203-e336b74c-8b20-80fa-8006-1c08023c8a0d" class="strokes"><g class="stroke-shape"><path d="M19.500,498.728C19.500,497.689,20.343,496.845,21.381,496.845C22.419,496.845,23.261,497.689,23.261,498.728C23.261,499.767,22.419,500.611,21.381,500.611C20.343,500.611,19.500,499.767,19.500,498.728Z" style="fill: none; stroke-width: 0; stroke: rgb(255, 255, 255); stroke-opacity: 1;"/></g></g></g><g id="shape-e336b74c-8b20-80fa-8006-1c08023c8a0e"><g class="fills" id="fills-e336b74c-8b20-80fa-8006-1c08023c8a0e"><path d="M21.381,618.145L21.381,498.728"/></g><g id="strokes-ae796f3d-1f4e-807e-8006-1c13d4963f9d-e336b74c-8b20-80fa-8006-1c08023c8a0e" class="strokes"><g class="stroke-shape"><path d="M21.381,618.145L21.381,498.728" style="fill: none; stroke-width: 2; stroke: rgb(0, 0, 0); stroke-opacity: 1; stroke-dasharray: 12, 12;"/></g></g></g></g><g id="shape-e336b74c-8b20-80fa-8006-1c08023c8a0a" rx="0" ry="0"><g id="shape-e336b74c-8b20-80fa-8006-1c08023c8a0f"><g class="fills" id="fills-e336b74c-8b20-80fa-8006-1c08023c8a0f"><path d="M193.860,618.145L20.790,618.210"/></g><g id="strokes-ae796f3d-1f4e-807e-8006-1c13d4969788-e336b74c-8b20-80fa-8006-1c08023c8a0f" class="strokes"><g class="stroke-shape"><path d="M193.860,618.145L20.790,618.210" style="fill: none; stroke-width: 2; stroke: rgb(0, 0, 0); stroke-opacity: 1; stroke-dasharray: 12, 12;"/></g></g></g><g id="shape-e336b74c-8b20-80fa-8006-1c08023c8a10"><g class="fills" id="fills-e336b74c-8b20-80fa-8006-1c08023c8a10"><ellipse cx="21.41837807455181" cy="618.2104515678806" rx="1.7606462217229364" ry="1.75864152201234" transform="matrix(0.000000, 1.000000, -1.000000, 0.000000, 639.628830, 596.792073)" style="fill: rgb(0, 0, 0); fill-opacity: 1;"/></g></g></g></g><g id="shape-e336b74c-8b20-80fa-8006-1c08023c8a07" rx="0" ry="0"><g id="shape-e336b74c-8b20-80fa-8006-1c08023c8a11"><g class="fills" id="fills-e336b74c-8b20-80fa-8006-1c08023c8a11"><path d="M251.500,279.667L193.120,352.716L134.741,279.667C134.741,279.667,154.201,260.000,193.120,260.000C232.040,260.000,251.500,279.667,251.500,279.667Z" style="fill: rgb(172, 195, 230); fill-opacity: 0.5;"/></g><g id="strokes-ae796f3d-1f4e-807e-8006-1c13d4976d49-e336b74c-8b20-80fa-8006-1c08023c8a11" class="strokes"><g class="stroke-shape"><path d="M251.500,279.667L193.120,352.716L134.741,279.667C134.741,279.667,154.201,260.000,193.120,260.000C232.040,260.000,251.500,279.667,251.500,279.667Z" style="fill: none; stroke-width: 0; stroke: rgb(172, 195, 230); stroke-opacity: 0.5;"/></g></g></g><g id="shape-e336b74c-8b20-80fa-8006-1c08023c8a12"><g class="fills" id="fills-e336b74c-8b20-80fa-8006-1c08023c8a12"><ellipse cx="193.35394526474192" cy="351.5457139291497" rx="17.513871908210604" ry="17.559919551627388" transform="matrix(1.000000, 0.000000, 0.000000, 1.000000, 0.000000, 0.000000)" style="fill: rgb(66, 133, 244); fill-opacity: 0.8;"/></g><g id="strokes-ae796f3d-1f4e-807e-8006-1c13d497fddc-e336b74c-8b20-80fa-8006-1c08023c8a12" class="strokes"><g class="inner-stroke-shape" transform="matrix(1.000000, 0.000000, 0.000000, 1.000000, 0.000000, 0.000000)"><defs><clipPath id="inner-stroke-render-15-e336b74c-8b20-80fa-8006-1c08023c8a12-0"><use href="#stroke-shape-render-15-e336b74c-8b20-80fa-8006-1c08023c8a12-0"/></clipPath><ellipse cx="193.35394526474192" cy="351.5457139291497" rx="17.513871908210604" ry="17.559919551627388" id="stroke-shape-render-15-e336b74c-8b20-80fa-8006-1c08023c8a12-0" style="fill: none; stroke-width: 8; stroke: rgb(255, 255, 255); stroke-opacity: 0.8;"/></defs><use href="#stroke-shape-render-15-e336b74c-8b20-80fa-8006-1c08023c8a12-0" clip-path="url('#inner-stroke-render-15-e336b74c-8b20-80fa-8006-1c08023c8a12-0')"/></g></g></g></g></g></g></g></g></g></g></g></svg>