<svg width="386" xmlns="http://www.w3.org/2000/svg" height="706" id="screenshot-e336b74c-8b20-80fa-8006-1bed3e300bdd" viewBox="0 0 386 706" xmlns:xlink="http://www.w3.org/1999/xlink" fill="none" version="1.1"><g id="shape-e336b74c-8b20-80fa-8006-1bed3e300bdd"><defs><clipPath id="frame-clip-e336b74c-8b20-80fa-8006-1bed3e300bdd-render-1" class="frame-clip frame-clip-def"><rect rx="0" ry="0" x="0" y="0" width="386" height="706" transform="matrix(1.000000, 0.000000, 0.000000, 1.000000, 0.000000, 0.000000)"/></clipPath></defs><g class="frame-container-wrapper"><g class="frame-container-blur"><g class="frame-container-shadows"><g clip-path="url(#frame-clip-e336b74c-8b20-80fa-8006-1bed3e300bdd-render-1)" fill="none"><g class="fills" id="fills-e336b74c-8b20-80fa-8006-1bed3e300bdd"><rect width="386" height="706" class="frame-background" x="0" transform="matrix(1.000000, 0.000000, 0.000000, 1.000000, 0.000000, 0.000000)" style="fill: rgb(255, 255, 255); fill-opacity: 1;" ry="0" rx="0" y="0"/></g><g class="frame-children"><g id="shape-e336b74c-8b20-80fa-8006-1c00600bfcaf" rx="0" ry="0"><g id="shape-e336b74c-8b20-80fa-8006-1c00600bfcb0" rx="0" ry="0"><g id="shape-e336b74c-8b20-80fa-8006-1c012b6b3f5c" rx="0" ry="0"><g id="shape-e336b74c-8b20-80fa-8006-1c012b6b3f5d"><g class="fills" id="fills-e336b74c-8b20-80fa-8006-1c012b6b3f5d"><path d="M195.500,421.114C195.500,422.155,194.657,423.000,193.619,423.000C192.581,423.000,191.739,422.155,191.739,421.114C191.739,420.074,192.581,419.229,193.619,419.229C194.657,419.229,195.500,420.074,195.500,421.114Z" style="fill: rgb(0, 0, 0); fill-opacity: 1;"/></g><g id="strokes-d855374d-1960-8053-8006-1c1318f128aa-e336b74c-8b20-80fa-8006-1c012b6b3f5d" class="strokes"><g class="stroke-shape"><path d="M195.500,421.114C195.500,422.155,194.657,423.000,193.619,423.000C192.581,423.000,191.739,422.155,191.739,421.114C191.739,420.074,192.581,419.229,193.619,419.229C194.657,419.229,195.500,420.074,195.500,421.114Z" style="fill: none; stroke-width: 0; stroke: rgb(255, 255, 255); stroke-opacity: 1;"/></g></g></g><g id="shape-e336b74c-8b20-80fa-8006-1c012b6b3f5e"><g class="fills" id="fills-e336b74c-8b20-80fa-8006-1c012b6b3f5e"><path d="M193.619,368.318L193.619,421.114M193.619,368.318"/></g><g id="strokes-d855374d-1960-8053-8006-1c1318f1d7ab-e336b74c-8b20-80fa-8006-1c012b6b3f5e" class="strokes"><g class="stroke-shape"><path d="M193.619,368.318L193.619,421.114M193.619,368.318" style="fill: none; stroke-width: 2; stroke: rgb(0, 0, 0); stroke-opacity: 1; stroke-dasharray: 12, 12;"/></g></g></g></g><g id="shape-e336b74c-8b20-80fa-8006-1c00600bfcb2" rx="0" ry="0"><g id="shape-e336b74c-8b20-80fa-8006-1c00600bfcb4"><g class="fills" id="fills-e336b74c-8b20-80fa-8006-1c00600bfcb4"><path d="M19.500,301.543C19.500,300.503,20.343,299.658,21.381,299.658C22.419,299.658,23.261,300.503,23.261,301.543C23.261,302.584,22.419,303.429,21.381,303.429C20.343,303.429,19.500,302.584,19.500,301.543Z" style="fill: rgb(0, 0, 0); fill-opacity: 1;"/></g><g id="strokes-d855374d-1960-8053-8006-1c1318f29962-e336b74c-8b20-80fa-8006-1c00600bfcb4" class="strokes"><g class="stroke-shape"><path d="M19.500,301.543C19.500,300.503,20.343,299.658,21.381,299.658C22.419,299.658,23.261,300.503,23.261,301.543C23.261,302.584,22.419,303.429,21.381,303.429C20.343,303.429,19.500,302.584,19.500,301.543Z" style="fill: none; stroke-width: 0; stroke: rgb(255, 255, 255); stroke-opacity: 1;"/></g></g></g><g id="shape-e336b74c-8b20-80fa-8006-1c00600bfcb5"><g class="fills" id="fills-e336b74c-8b20-80fa-8006-1c00600bfcb5"><path d="M21.381,421.142L21.381,301.543"/></g><g id="strokes-d855374d-1960-8053-8006-1c1318f2e0c7-e336b74c-8b20-80fa-8006-1c00600bfcb5" class="strokes"><g class="stroke-shape"><path d="M21.381,421.142L21.381,301.543" style="fill: none; stroke-width: 2; stroke: rgb(0, 0, 0); stroke-opacity: 1; stroke-dasharray: 12, 12;"/></g></g></g></g><g id="shape-e336b74c-8b20-80fa-8006-1c00600bfcb3" rx="0" ry="0"><g id="shape-e336b74c-8b20-80fa-8006-1c00600bfcb6"><g class="fills" id="fills-e336b74c-8b20-80fa-8006-1c00600bfcb6"><path d="M193.860,421.142L20.790,421.208"/></g><g id="strokes-d855374d-1960-8053-8006-1c1318f35ad1-e336b74c-8b20-80fa-8006-1c00600bfcb6" class="strokes"><g class="stroke-shape"><path d="M193.860,421.142L20.790,421.208" style="fill: none; stroke-width: 2; stroke: rgb(0, 0, 0); stroke-opacity: 1; stroke-dasharray: 12, 12;"/></g></g></g><g id="shape-e336b74c-8b20-80fa-8006-1c00600bfcb7"><g class="fills" id="fills-e336b74c-8b20-80fa-8006-1c00600bfcb7"><ellipse cx="21.418378074551356" cy="421.2077270608688" rx="1.7633267264193364" ry="1.75864152201234" transform="matrix(0.000000, 1.000000, -1.000000, 0.000000, 442.626105, 399.789349)" style="fill: rgb(0, 0, 0); fill-opacity: 1;"/></g></g></g></g><g id="shape-e336b74c-8b20-80fa-8006-1c00600bfcb1" rx="0" ry="0"><g id="shape-e336b74c-8b20-80fa-8006-1c00600bfcb8"><g class="fills" id="fills-e336b74c-8b20-80fa-8006-1c00600bfcb8"><path d="M251.500,279.697L193.120,352.858L134.741,279.697C134.741,279.697,154.201,260.000,193.120,260.000C232.040,260.000,251.500,279.697,251.500,279.697Z" style="fill: rgb(172, 195, 230); fill-opacity: 0.5;"/></g><g id="strokes-d855374d-1960-8053-8006-1c1318f424d3-e336b74c-8b20-80fa-8006-1c00600bfcb8" class="strokes"><g class="stroke-shape"><path d="M251.500,279.697L193.120,352.858L134.741,279.697C134.741,279.697,154.201,260.000,193.120,260.000C232.040,260.000,251.500,279.697,251.500,279.697Z" style="fill: none; stroke-width: 0; stroke: rgb(172, 195, 230); stroke-opacity: 0.5;"/></g></g></g><g id="shape-e336b74c-8b20-80fa-8006-1c00600bfcb9"><g class="fills" id="fills-e336b74c-8b20-80fa-8006-1c00600bfcb9"><ellipse cx="193.35394526474192" cy="351.6850881618043" rx="17.513871908210604" ry="17.586653739476702" transform="matrix(1.000000, 0.000000, 0.000000, 1.000000, 0.000000, 0.000000)" style="fill: rgb(66, 133, 244); fill-opacity: 0.8;"/></g><g id="strokes-d855374d-1960-8053-8006-1c1318f45a4d-e336b74c-8b20-80fa-8006-1c00600bfcb9" class="strokes"><g class="inner-stroke-shape" transform="matrix(1.000000, 0.000000, 0.000000, 1.000000, 0.000000, 0.000000)"><defs><clipPath id="inner-stroke-render-15-e336b74c-8b20-80fa-8006-1c00600bfcb9-0"><use href="#stroke-shape-render-15-e336b74c-8b20-80fa-8006-1c00600bfcb9-0"/></clipPath><ellipse cx="193.35394526474192" cy="351.6850881618043" rx="17.513871908210604" ry="17.586653739476702" id="stroke-shape-render-15-e336b74c-8b20-80fa-8006-1c00600bfcb9-0" style="fill: none; stroke-width: 8; stroke: rgb(255, 255, 255); stroke-opacity: 0.8;"/></defs><use href="#stroke-shape-render-15-e336b74c-8b20-80fa-8006-1c00600bfcb9-0" clip-path="url('#inner-stroke-render-15-e336b74c-8b20-80fa-8006-1c00600bfcb9-0')"/></g></g></g></g></g></g></g></g></g></g></g></svg>