<svg width="125.499" xmlns="http://www.w3.org/2000/svg" height="117.064" id="screenshot-ce1572c6-a206-8090-8006-1836f218fb86" viewBox="0 0 125.499 117.064" xmlns:xlink="http://www.w3.org/1999/xlink" fill="none" version="1.1"><g id="shape-ce1572c6-a206-8090-8006-1836f218fb86" rx="0" ry="0"><g id="shape-dbc4ccaf-07c0-80f4-8006-1833651b53da"><g class="fills" id="fills-dbc4ccaf-07c0-80f4-8006-1833651b53da"><path d="M125.499,21.102L62.750,99.479L0.000,21.102C0.000,21.102,20.917,0.000,62.750,0.000C104.583,0.000,125.499,21.102,125.499,21.102Z" style="fill: rgb(172, 195, 230); fill-opacity: 0.5;"/></g><g id="strokes-b721bb50-eb51-80d4-8006-1b87531d7d8d-dbc4ccaf-07c0-80f4-8006-1833651b53da" class="strokes"><g class="stroke-shape"><path d="M125.499,21.102L62.750,99.479L0.000,21.102C0.000,21.102,20.917,0.000,62.750,0.000C104.583,0.000,125.499,21.102,125.499,21.102Z" style="fill: none; stroke-width: 0; stroke: rgb(172, 195, 230); stroke-opacity: 0.5;"/></g></g></g><g id="shape-dbc4ccaf-07c0-80f4-8006-182e4e8e7b28"><g class="fills" id="fills-dbc4ccaf-07c0-80f4-8006-182e4e8e7b28"><ellipse cx="63.00066577896155" cy="98.22313649564376" rx="18.82490013315578" ry="18.84075508228466" transform="matrix(1.000000, 0.000000, 0.000000, 1.000000, 0.000000, 0.000000)" style="fill: rgb(66, 133, 244); fill-opacity: 0.8;"/></g><g id="strokes-b721bb50-eb51-80d4-8006-1b87531e33e4-dbc4ccaf-07c0-80f4-8006-182e4e8e7b28" class="strokes"><g class="inner-stroke-shape" transform="matrix(1.000000, 0.000000, 0.000000, 1.000000, 0.000000, 0.000000)"><defs><clipPath id="inner-stroke-render-3-dbc4ccaf-07c0-80f4-8006-182e4e8e7b28-0"><use href="#stroke-shape-render-3-dbc4ccaf-07c0-80f4-8006-182e4e8e7b28-0"/></clipPath><ellipse cx="63.00066577896155" cy="98.22313649564376" rx="18.82490013315578" ry="18.84075508228466" id="stroke-shape-render-3-dbc4ccaf-07c0-80f4-8006-182e4e8e7b28-0" style="fill: none; stroke-width: 8; stroke: rgb(255, 255, 255); stroke-opacity: 0.8;"/></defs><use href="#stroke-shape-render-3-dbc4ccaf-07c0-80f4-8006-182e4e8e7b28-0" clip-path="url('#inner-stroke-render-3-dbc4ccaf-07c0-80f4-8006-182e4e8e7b28-0')"/></g></g></g></g></svg>