<svg width="405" xmlns="http://www.w3.org/2000/svg" height="389" id="screenshot-87dc46f4-6b2f-80df-8006-267afd32b12f" viewBox="-0 -0 405 389" xmlns:xlink="http://www.w3.org/1999/xlink" fill="none" version="1.1"><g id="shape-87dc46f4-6b2f-80df-8006-267afd32b12f" rx="0" ry="0"><g id="shape-87dc46f4-6b2f-80df-8006-267783fdb6c4"><g class="fills" id="fills-87dc46f4-6b2f-80df-8006-267783fdb6c4"><path d="M365.000,98.000C373.000,97.000,377.000,100.000,377.000,100.000L405.000,210.000L256.486,313.440C256.486,313.440,218.448,265.646,178.627,215.613C178.627,215.613,248.000,199.000,262.000,161.000C262.000,161.000,359.000,100.000,365.000,98.000ZM178.627,215.613C179.000,215.000,178.627,215.613,178.627,215.613Z" style="fill: rgb(212, 254, 212); fill-opacity: 1;"/></g><g id="strokes-7976d5f6-1ac4-8075-8006-26997683d472-87dc46f4-6b2f-80df-8006-267783fdb6c4" class="strokes"><g class="stroke-shape"><path d="M365.000,98.000C373.000,97.000,377.000,100.000,377.000,100.000L405.000,210.000L256.486,313.440C256.486,313.440,218.448,265.646,178.627,215.613C178.627,215.613,248.000,199.000,262.000,161.000C262.000,161.000,359.000,100.000,365.000,98.000ZM178.627,215.613C179.000,215.000,178.627,215.613,178.627,215.613Z" style="fill: none; stroke-width: 1.5; stroke: rgb(35, 103, 25); stroke-opacity: 1;"/></g></g></g><g id="shape-87dc46f4-6b2f-80df-8006-267872a7853c"><g class="fills" id="fills-87dc46f4-6b2f-80df-8006-267872a7853c"><path d="M365.000,98.000C359.000,100.000,262.000,161.000,262.000,161.000C276.000,123.000,252.000,89.000,252.000,89.000L226.386,45.043C266.772,22.435,307.000,-0.000,307.000,-0.000C307.000,-0.000,357.000,99.000,354.000,89.000C351.000,79.000,357.000,99.000,365.000,98.000ZC373.000,97.000,377.000,100.000,377.000,100.000" style="fill: rgb(254, 233, 212); fill-opacity: 1;"/></g><g id="strokes-7976d5f6-1ac4-8075-8006-26997684ca24-87dc46f4-6b2f-80df-8006-267872a7853c" class="strokes"><g class="stroke-shape"><path d="M365.000,98.000C359.000,100.000,262.000,161.000,262.000,161.000C276.000,123.000,252.000,89.000,252.000,89.000L226.386,45.043C266.772,22.435,307.000,-0.000,307.000,-0.000C307.000,-0.000,357.000,99.000,354.000,89.000C351.000,79.000,357.000,99.000,365.000,98.000ZC373.000,97.000,377.000,100.000,377.000,100.000" style="fill: none; stroke-width: 1.5; stroke: rgb(35, 103, 25); stroke-opacity: 1;"/></g></g></g><g id="shape-87dc46f4-6b2f-80df-8006-26787403272f"><g class="fills" id="fills-87dc46f4-6b2f-80df-8006-26787403272f"><path d="M226.386,45.043L252.000,89.000C252.000,89.000,276.000,123.000,262.000,161.000C248.000,199.000,178.627,215.613,178.627,215.613C134.889,160.658,89.000,103.000,89.000,103.000C89.000,103.000,100.000,106.000,112.000,104.000C124.000,102.000,139.000,95.000,145.000,91.000C147.953,89.031,187.244,66.956,226.386,45.043ZM178.627,215.613C179.000,215.000,178.627,215.613,178.627,215.613Z" style="fill: rgb(217, 255, 246); fill-opacity: 1;"/></g><g id="strokes-7976d5f6-1ac4-8075-8006-26997685404c-87dc46f4-6b2f-80df-8006-26787403272f" class="strokes"><g class="stroke-shape"><path d="M226.386,45.043L252.000,89.000C252.000,89.000,276.000,123.000,262.000,161.000C248.000,199.000,178.627,215.613,178.627,215.613C134.889,160.658,89.000,103.000,89.000,103.000C89.000,103.000,100.000,106.000,112.000,104.000C124.000,102.000,139.000,95.000,145.000,91.000C147.953,89.031,187.244,66.956,226.386,45.043ZM178.627,215.613C179.000,215.000,178.627,215.613,178.627,215.613Z" style="fill: none; stroke-width: 1.5; stroke: rgb(35, 103, 25); stroke-opacity: 1;"/></g></g></g><g id="shape-87dc46f4-6b2f-80df-8006-26785ffdd08e"><g class="fills" id="fills-87dc46f4-6b2f-80df-8006-26785ffdd08e"><path d="M148.000,389.000C143.000,383.000,120.000,355.000,119.000,354.000C118.000,353.000,73.000,308.000,69.000,305.000C65.000,302.000,9.000,237.000,9.000,237.000L18.000,202.000L0.000,156.000L89.000,103.000L256.486,313.440L148.000,389.000ZM89.000,103.000C89.000,103.000,134.889,160.658,178.627,215.613C218.448,265.646,256.486,313.440,256.486,313.440M178.627,215.613C179.000,215.000,178.627,215.613,178.627,215.613Z" style="fill: rgb(254, 233, 212); fill-opacity: 1;"/></g><g id="strokes-7976d5f6-1ac4-8075-8006-26997685f3ef-87dc46f4-6b2f-80df-8006-26785ffdd08e" class="strokes"><g class="stroke-shape"><path d="M148.000,389.000C143.000,383.000,120.000,355.000,119.000,354.000C118.000,353.000,73.000,308.000,69.000,305.000C65.000,302.000,9.000,237.000,9.000,237.000L18.000,202.000L0.000,156.000L89.000,103.000L256.486,313.440L148.000,389.000ZM89.000,103.000C89.000,103.000,134.889,160.658,178.627,215.613C218.448,265.646,256.486,313.440,256.486,313.440M178.627,215.613C179.000,215.000,178.627,215.613,178.627,215.613Z" style="fill: none; stroke-width: 1.5; stroke: rgb(35, 103, 25); stroke-opacity: 1;"/></g></g></g></g></svg>