<svg width="400.695" xmlns="http://www.w3.org/2000/svg" height="500.726" id="screenshot-87dc46f4-6b2f-80df-8006-2675fda2f7f1" viewBox="-12.348 -9.509 400.695 500.726" xmlns:xlink="http://www.w3.org/1999/xlink" fill="none" version="1.1"><g id="shape-87dc46f4-6b2f-80df-8006-2675fda2f7f1" rx="0" ry="0"><g id="shape-87dc46f4-6b2f-80df-8006-2674a8212d8b"><g class="fills" id="fills-87dc46f4-6b2f-80df-8006-2674a8212d8b"><path d="M171.456,364.303C171.456,364.303,182.723,377.393,199.150,385.319L212.067,377.301L214.605,380.695L214.780,398.094L209.733,401.091L203.035,414.870L209.654,433.694L228.135,443.901L236.636,457.933L236.210,466.063C236.210,466.063,231.078,470.685,226.060,473.139C221.041,475.594,195.121,482.931,170.226,481.082C145.330,479.234,145.328,468.908,132.293,458.443C119.259,447.978,71.257,410.137,71.257,410.137L63.412,393.966L56.224,385.981L171.456,364.303Z" style="fill: rgb(217, 255, 246); fill-opacity: 1;"/></g><g id="strokes-4715de71-1c7b-8030-8006-2698c35267d7-87dc46f4-6b2f-80df-8006-2674a8212d8b" class="strokes"><g class="inner-stroke-shape"><defs><clipPath id="inner-stroke-render-2-87dc46f4-6b2f-80df-8006-2674a8212d8b-0"><use href="#stroke-shape-render-2-87dc46f4-6b2f-80df-8006-2674a8212d8b-0"/></clipPath><path d="M171.456,364.303C171.456,364.303,182.723,377.393,199.150,385.319L212.067,377.301L214.605,380.695L214.780,398.094L209.733,401.091L203.035,414.870L209.654,433.694L228.135,443.901L236.636,457.933L236.210,466.063C236.210,466.063,231.078,470.685,226.060,473.139C221.041,475.594,195.121,482.931,170.226,481.082C145.330,479.234,145.328,468.908,132.293,458.443C119.259,447.978,71.257,410.137,71.257,410.137L63.412,393.966L56.224,385.981L171.456,364.303Z" id="stroke-shape-render-2-87dc46f4-6b2f-80df-8006-2674a8212d8b-0" style="fill: none; stroke-width: 4; stroke: rgb(35, 103, 25); stroke-opacity: 1;"/></defs><use href="#stroke-shape-render-2-87dc46f4-6b2f-80df-8006-2674a8212d8b-0" clip-path="url('#inner-stroke-render-2-87dc46f4-6b2f-80df-8006-2674a8212d8b-0')"/></g></g></g><g id="shape-87dc46f4-6b2f-80df-8006-26754ef302d0"><g class="fills" id="fills-87dc46f4-6b2f-80df-8006-26754ef302d0"><path d="M25.882,392.749L2.263,221.408L7.251,209.170L19.339,196.217L18.994,182.069L332.080,179.456C332.080,179.456,325.038,189.413,314.003,192.639C302.967,195.865,303.909,198.631,287.027,199.377C270.145,200.123,282.664,199.692,261.990,200.239C241.315,200.786,215.310,209.748,201.967,225.896C188.625,242.044,185.404,251.658,185.492,260.358C185.579,269.058,184.325,272.253,185.240,285.887C186.156,299.522,197.084,329.441,197.084,329.441L169.254,342.113L163.923,350.528L170.200,365.531L54.968,387.208L25.882,392.749ZM54.968,387.208L170.200,365.531M18.994,182.069L332.080,179.456" style="fill: rgb(212, 254, 212); fill-opacity: 1;"/></g><g id="strokes-4715de71-1c7b-8030-8006-2698c353b977-87dc46f4-6b2f-80df-8006-26754ef302d0" class="strokes"><g class="stroke-shape"><path d="M25.882,392.749L2.263,221.408L7.251,209.170L19.339,196.217L18.994,182.069L332.080,179.456C332.080,179.456,325.038,189.413,314.003,192.639C302.967,195.865,303.909,198.631,287.027,199.377C270.145,200.123,282.664,199.692,261.990,200.239C241.315,200.786,215.310,209.748,201.967,225.896C188.625,242.044,185.404,251.658,185.492,260.358C185.579,269.058,184.325,272.253,185.240,285.887C186.156,299.522,197.084,329.441,197.084,329.441L169.254,342.113L163.923,350.528L170.200,365.531L54.968,387.208L25.882,392.749ZM54.968,387.208L170.200,365.531M18.994,182.069L332.080,179.456" style="fill: none; stroke-width: 2; stroke: rgb(35, 103, 25); stroke-opacity: 1;"/></g></g></g><g id="shape-87dc46f4-6b2f-80df-8006-26755238bc72"><g class="fills" id="fills-87dc46f4-6b2f-80df-8006-26755238bc72"><path d="M332.697,180.491L19.611,183.104L5.257,135.614C5.257,135.614,23.896,80.615,67.006,45.919C110.116,11.223,161.935,28.068,161.935,28.068C161.935,28.068,185.455,54.675,209.357,25.119C210.951,23.149,212.442,21.341,214.033,18.843L228.033,10.881C228.033,10.881,256.263,0.948,296.216,5.759C336.169,10.570,372.019,31.470,372.019,31.470L384.028,51.120L385.372,66.951L350.570,150.450L332.697,180.491Z" style="fill: rgb(254, 233, 212); fill-opacity: 1;"/></g><g id="strokes-4715de71-1c7b-8030-8006-2698c35472ed-87dc46f4-6b2f-80df-8006-26755238bc72" class="strokes"><g class="inner-stroke-shape"><defs><clipPath id="inner-stroke-render-4-87dc46f4-6b2f-80df-8006-26755238bc72-0"><use href="#stroke-shape-render-4-87dc46f4-6b2f-80df-8006-26755238bc72-0"/></clipPath><path d="M332.697,180.491L19.611,183.104L5.257,135.614C5.257,135.614,23.896,80.615,67.006,45.919C110.116,11.223,161.935,28.068,161.935,28.068C161.935,28.068,185.455,54.675,209.357,25.119C210.951,23.149,212.442,21.341,214.033,18.843L228.033,10.881C228.033,10.881,256.263,0.948,296.216,5.759C336.169,10.570,372.019,31.470,372.019,31.470L384.028,51.120L385.372,66.951L350.570,150.450L332.697,180.491Z" id="stroke-shape-render-4-87dc46f4-6b2f-80df-8006-26755238bc72-0" style="fill: none; stroke-width: 4; stroke: rgb(35, 103, 25); stroke-opacity: 1;"/></defs><use href="#stroke-shape-render-4-87dc46f4-6b2f-80df-8006-26755238bc72-0" clip-path="url('#inner-stroke-render-4-87dc46f4-6b2f-80df-8006-26755238bc72-0')"/></g></g></g></g></svg>